# xmcd
#
# Track frame offsets:
#	183
#	16283
#	35958
#	53583
#	75295
#	95500
#	114203
#	132710
#	152860
#	170838
#	189773
#
# Disc length: 2664 seconds
#
# Revision: 0
# Processed by: cddbd v1.4PL0 Copyright (c) Steve Scherf et al.
# Submitted via: audiograbber 1.81.03
#
DISCID=870a660b
DTITLE=BB Queen - In The Mood
DYEAR=1991
DGENRE=Blues
TTITLE0=I'm In The Mood
TTITLE1=Now Love Me
TTITLE2=Blueshouse-Radio Mix
TTITLE3=Try To Find Me Back
TTITLE4=No Time To Hesitate
TTITLE5=We Gonna`Rock This House
TTITLE6=Love You Nights
TTITLE7=I Wanna Be`Next To You
TTITLE8=Soultrain
TTITLE9=Hey BB Be Careful Out There In The Jungle
TTITLE10=Blueshouse Ballad
EXTD=YEAR: 1991 ID3G: 0
EXTT0=
EXTT1=
EXTT2=
EXTT3=
EXTT4=
EXTT5=
EXTT6=
EXTT7=
EXTT8=
EXTT9=
EXTT10=
PLAYORDER=
